<?xml version="1.0" encoding="UTF-8" standalone="no"?>
<!-- Created with Inkscape (http://www.inkscape.org/) -->

<svg
   xmlns:dc="http://purl.org/dc/elements/1.1/"
   xmlns:cc="http://creativecommons.org/ns#"
   xmlns:rdf="http://www.w3.org/1999/02/22-rdf-syntax-ns#"
   xmlns:svg="http://www.w3.org/2000/svg"
   xmlns="http://www.w3.org/2000/svg"
   xmlns:sodipodi="http://sodipodi.sourceforge.net/DTD/sodipodi-0.dtd"
   xmlns:inkscape="http://www.inkscape.org/namespaces/inkscape"
   width="210mm"
   height="297mm"
   viewBox="0 0 210 297"
   version="1.1"
   id="svg8"
   inkscape:version="0.92.1 r15371"
   sodipodi:docname="gaiabirdlogo.svg">
  <defs
     id="defs2">
    <marker
       inkscape:stockid="Arrow1Lstart"
       orient="auto"
       refY="0.0"
       refX="0.0"
       id="Arrow1Lstart"
       style="overflow:visible"
       inkscape:isstock="true">
      <path
         id="path4511"
         d="M 0.0,0.0 L 5.0,-5.0 L -12.5,0.0 L 5.0,5.0 L 0.0,0.0 z "
         style="fill-rule:evenodd;stroke:#000000;stroke-width:1pt;stroke-opacity:1;fill:#000000;fill-opacity:1"
         transform="scale(0.8) translate(12.5,0)" />
    </marker>
  </defs>
  <sodipodi:namedview
     id="base"
     pagecolor="#ffffff"
     bordercolor="#666666"
     borderopacity="1.0"
     inkscape:pageopacity="0.0"
     inkscape:pageshadow="2"
     inkscape:zoom="0.70710678"
     inkscape:cx="-162.39896"
     inkscape:cy="942.21681"
     inkscape:document-units="mm"
     inkscape:current-layer="layer1"
     showgrid="false"
     showguides="true"
     inkscape:guide-bbox="true"
     inkscape:snap-tangential="false"
     inkscape:snap-perpendicular="false"
     guidetolerance="20"
     objecttolerance="20"
     inkscape:window-width="1920"
     inkscape:window-height="1027"
     inkscape:window-x="1912"
     inkscape:window-y="-8"
     inkscape:window-maximized="1" />
  <metadata
     id="metadata5">
    <rdf:RDF>
      <cc:Work
         rdf:about="">
        <dc:format>image/svg+xml</dc:format>
        <dc:type
           rdf:resource="http://purl.org/dc/dcmitype/StillImage" />
        <dc:title></dc:title>
      </cc:Work>
    </rdf:RDF>
  </metadata>
  <g
     inkscape:label="Layer 1"
     inkscape:groupmode="layer"
     id="layer1">
    <circle
       id="path3702"
       cx="14.975858"
       cy="129.5134"
       style="fill:#ffe53a;fill-opacity:1;stroke:#000000;stroke-width:2;stroke-miterlimit:4;stroke-dasharray:none"
       r="49.872375"
       transform="rotate(-45)" />
    <path
       style="fill:#ffffff;fill-opacity:1;stroke:#000000;stroke-width:2.03053117;stroke-linecap:butt;stroke-linejoin:miter;stroke-miterlimit:4;stroke-dasharray:none;stroke-opacity:1"
       d="m 67.886891,117.24551 c 5.952522,5.95252 15.505834,7.15654 23.041887,-0.37952 6.668595,-6.66859 8.078217,-14.47573 11.873352,-34.752591 3.81438,-20.379683 4.60838,-27.704483 12.41551,-35.511616 7.80714,-7.807137 17.67448,-5.313182 22.87923,-0.108425 5.20476,5.204757 8.07822,15.01789 -0.27107,23.367181 -8.83724,8.83724 -24.80588,9.603952 -36.37908,12.415511 -12.517039,3.040855 -24.776806,2.873458 -33.18032,11.276972 -9.379403,9.379398 -5.772743,18.299248 -0.379509,23.692488 z"
       id="path4797"
       inkscape:connector-curvature="0"
       sodipodi:nodetypes="sssssssss" />
    <path
       style="fill:none;stroke:#000000;stroke-width:2;stroke-linecap:butt;stroke-linejoin:miter;stroke-miterlimit:4;stroke-dasharray:none;stroke-opacity:1"
       d="m 62.496197,103.67028 18.307962,18.30797"
       id="path5079"
       inkscape:connector-curvature="0" />
    <path
       style="fill:none;stroke:#000000;stroke-width:2;stroke-linecap:butt;stroke-linejoin:miter;stroke-miterlimit:4;stroke-dasharray:none;stroke-opacity:1"
       d="M 68.88203,92.339967 92.134478,115.59241"
       id="path5079-7"
       inkscape:connector-curvature="0" />
    <path
       style="fill:none;stroke:#000000;stroke-width:1.82849491;stroke-linecap:butt;stroke-linejoin:miter;stroke-miterlimit:4;stroke-dasharray:none;stroke-opacity:1"
       d="m 95.361757,83.387398 6.143413,6.143414"
       id="path5079-7-5-1"
       inkscape:connector-curvature="0" />
    <path
       style="fill:none;stroke:#000000;stroke-width:1.94705784;stroke-linecap:butt;stroke-linejoin:miter;stroke-miterlimit:4;stroke-dasharray:none;stroke-opacity:1"
       d="M 80.783824,86.525609 98.008701,103.75049"
       id="path5079-7-5-0"
       inkscape:connector-curvature="0" />
    <path
       style="fill:none;stroke:#000000;stroke-width:2;stroke-linecap:butt;stroke-linejoin:miter;stroke-miterlimit:4;stroke-dasharray:none;stroke-opacity:1"
       d="m 124.43591,41.596939 18.30796,18.307962"
       id="path5079-6"
       inkscape:connector-curvature="0" />
    <path
       style="fill:none;stroke:#000000;stroke-width:2;stroke-linecap:butt;stroke-linejoin:miter;stroke-miterlimit:4;stroke-dasharray:none;stroke-opacity:1"
       d="m 113.10558,47.982779 23.25245,23.252449"
       id="path5079-7-7"
       inkscape:connector-curvature="0" />
    <path
       style="fill:none;stroke:#000000;stroke-width:1.82849491;stroke-linecap:butt;stroke-linejoin:miter;stroke-miterlimit:4;stroke-dasharray:none;stroke-opacity:1"
       d="m 104.16398,74.473477 6.14341,6.143414"
       id="path5079-7-5-1-2"
       inkscape:connector-curvature="0" />
    <path
       style="fill:none;stroke:#000000;stroke-width:1.94705784;stroke-linecap:butt;stroke-linejoin:miter;stroke-miterlimit:4;stroke-dasharray:none;stroke-opacity:1"
       d="M 107.29472,59.88806 124.5196,77.112937"
       id="path5079-7-5-0-3"
       inkscape:connector-curvature="0" />
    <path
       style="fill:none;stroke:#000000;stroke-width:2;stroke-linecap:butt;stroke-linejoin:miter;stroke-miterlimit:4;stroke-dasharray:none;stroke-opacity:1"
       d="M 66.351704,79.427038 C 66.30561,73.444514 72.824336,67.081962 78.644361,67.134382"
       id="path5234"
       inkscape:connector-curvature="0"
       sodipodi:nodetypes="cc" />
    <path
       style="fill:none;stroke:#000000;stroke-width:2;stroke-linecap:butt;stroke-linejoin:miter;stroke-miterlimit:4;stroke-dasharray:none;stroke-opacity:1"
       d="M 100.37477,45.403977 C 94.392241,45.357883 88.029689,51.876608 88.082109,57.696634"
       id="path5234-5"
       inkscape:connector-curvature="0"
       sodipodi:nodetypes="cc" />
    <path
       inkscape:connector-curvature="0"
       style="fill:#ff3a00;fill-opacity:1;stroke:#000000;stroke-width:2;stroke-miterlimit:4;stroke-dasharray:none"
       d="M 36.422216,8.8533697 A 38.909638,13.637933 67.271328 0 0 33.672642,19.85702 c 4.541059,4.530261 7.333714,8.159951 7.333714,8.159951 0,0 -2.829691,-0.964377 -6.858394,-2.129622 A 38.909638,13.637933 67.271328 0 0 40.659932,48.715105 38.909638,13.637933 67.271328 0 0 52.672159,69.804292 38.909638,13.637933 67.271328 0 0 48.434949,29.942659 38.909638,13.637933 67.271328 0 0 36.422216,8.8533697 Z"
       id="path5274-0-2" />
    <path
       style="fill:#ff3a00;fill-opacity:1;stroke:#000000;stroke-width:1.7346164;stroke-miterlimit:4;stroke-dasharray:none"
       d="M 27.299268,49.176828 A 33.746648,11.828291 26.318979 0 0 7.4422148,42.191226 33.746648,11.828291 26.318979 0 0 32.87764,65.893212 33.746648,11.828291 26.318979 0 0 52.734693,72.878814 33.746648,11.828291 26.318979 0 0 27.299268,49.176828 Z"
       id="path5274-0-2-9"
       inkscape:connector-curvature="0" />
    <circle
       id="path3702-3"
       cx="-82.670113"
       cy="230.71675"
       style="fill:none;fill-opacity:1;stroke:#968c8c;stroke-width:2;stroke-miterlimit:4;stroke-dasharray:none;stroke-opacity:1"
       r="49.872375"
       transform="rotate(-45)" />
    <path
       style="fill:#ffffff;fill-opacity:1;stroke:#968c8c;stroke-width:2.03053117;stroke-linecap:butt;stroke-linejoin:miter;stroke-miterlimit:4;stroke-dasharray:none;stroke-opacity:1"
       d="m 70.402341,257.85321 c 5.95252,5.95252 15.50583,7.15654 23.04189,-0.37952 6.668589,-6.66859 8.078209,-14.47573 11.873349,-34.75259 3.81438,-20.37968 4.60838,-27.70448 12.41551,-35.51162 7.80714,-7.80713 17.67448,-5.31318 22.87923,-0.10842 5.20476,5.20476 8.07822,15.01789 -0.27107,23.36718 -8.83724,8.83724 -24.80588,9.60395 -36.37908,12.41551 -12.517039,3.04085 -24.776809,2.87346 -33.180319,11.27697 -9.37941,9.3794 -5.77275,18.29925 -0.37951,23.69249 z"
       id="path4797-0"
       inkscape:connector-curvature="0"
       sodipodi:nodetypes="sssssssss" />
    <path
       style="fill:none;stroke:#968c8c;stroke-width:2;stroke-linecap:butt;stroke-linejoin:miter;stroke-miterlimit:4;stroke-dasharray:none;stroke-opacity:1"
       d="m 65.011641,244.27798 18.30797,18.30797"
       id="path5079-9"
       inkscape:connector-curvature="0" />
    <path
       style="fill:none;stroke:#968c8c;stroke-width:2;stroke-linecap:butt;stroke-linejoin:miter;stroke-miterlimit:4;stroke-dasharray:none;stroke-opacity:1"
       d="m 71.397481,232.94767 23.25244,23.25244"
       id="path5079-7-8"
       inkscape:connector-curvature="0" />
    <path
       style="fill:none;stroke:#968c8c;stroke-width:1.82849503;stroke-linecap:butt;stroke-linejoin:miter;stroke-miterlimit:4;stroke-dasharray:none;stroke-opacity:1"
       d="m 97.877201,223.9951 6.143419,6.14341"
       id="path5079-7-5-1-6"
       inkscape:connector-curvature="0" />
    <path
       style="fill:none;stroke:#968c8c;stroke-width:1.94705784;stroke-linecap:butt;stroke-linejoin:miter;stroke-miterlimit:4;stroke-dasharray:none;stroke-opacity:1"
       d="m 83.299271,227.13331 17.224879,17.22488"
       id="path5079-7-5-0-1"
       inkscape:connector-curvature="0" />
    <path
       style="fill:none;stroke:#968c8c;stroke-width:2;stroke-linecap:butt;stroke-linejoin:miter;stroke-miterlimit:4;stroke-dasharray:none;stroke-opacity:1"
       d="m 126.95136,182.20464 18.30796,18.30796"
       id="path5079-6-7"
       inkscape:connector-curvature="0" />
    <path
       style="fill:none;stroke:#968c8c;stroke-width:2;stroke-linecap:butt;stroke-linejoin:miter;stroke-miterlimit:4;stroke-dasharray:none;stroke-opacity:1"
       d="m 115.62103,188.59048 23.25245,23.25245"
       id="path5079-7-7-8"
       inkscape:connector-curvature="0" />
    <path
       style="fill:none;stroke:#968c8c;stroke-width:1.82849503;stroke-linecap:butt;stroke-linejoin:miter;stroke-miterlimit:4;stroke-dasharray:none;stroke-opacity:1"
       d="m 106.67943,215.08118 6.14341,6.14341"
       id="path5079-7-5-1-2-2"
       inkscape:connector-curvature="0" />
    <path
       style="fill:none;stroke:#968c8c;stroke-width:1.94705784;stroke-linecap:butt;stroke-linejoin:miter;stroke-miterlimit:4;stroke-dasharray:none;stroke-opacity:1"
       d="m 109.81017,200.49576 17.22488,17.22488"
       id="path5079-7-5-0-3-1"
       inkscape:connector-curvature="0" />
    <path
       style="fill:none;stroke:#968c8c;stroke-width:2;stroke-linecap:butt;stroke-linejoin:miter;stroke-miterlimit:4;stroke-dasharray:none;stroke-opacity:1"
       d="m 68.867151,220.03474 c -0.0461,-5.98253 6.47263,-12.34508 12.29266,-12.29266"
       id="path5234-1"
       inkscape:connector-curvature="0"
       sodipodi:nodetypes="cc" />
    <path
       style="fill:none;stroke:#968c8c;stroke-width:2;stroke-linecap:butt;stroke-linejoin:miter;stroke-miterlimit:4;stroke-dasharray:none;stroke-opacity:1"
       d="m 102.89022,186.01168 c -5.982529,-0.0461 -12.345079,6.47263 -12.292659,12.29265"
       id="path5234-5-1"
       inkscape:connector-curvature="0"
       sodipodi:nodetypes="cc" />
    <path
       inkscape:connector-curvature="0"
       style="fill:none;fill-opacity:1;stroke:#968c8c;stroke-width:2;stroke-miterlimit:4;stroke-dasharray:none;stroke-opacity:1"
       d="m 38.937661,149.46107 a 38.909638,13.637933 67.271328 0 0 -2.74957,11.00365 c 4.54106,4.53026 7.33371,8.15995 7.33371,8.15995 0,0 -2.82969,-0.96438 -6.85839,-2.12962 a 38.909638,13.637933 67.271328 0 0 6.51197,22.82775 38.909638,13.637933 67.271328 0 0 12.01223,21.08919 38.909638,13.637933 67.271328 0 0 -4.23721,-39.86163 38.909638,13.637933 67.271328 0 0 -12.01274,-21.08929 z"
       id="path5274-0-2-3" />
    <path
       style="fill:none;fill-opacity:1;stroke:#968c8c;stroke-width:1.73461652;stroke-miterlimit:4;stroke-dasharray:none;stroke-opacity:1"
       d="m 29.814711,189.78453 a 33.746649,11.828291 26.318979 0 0 -19.8570501,-6.9856 33.746649,11.828291 26.318979 0 0 25.4354301,23.70198 33.746649,11.828291 26.318979 0 0 19.85705,6.98561 33.746649,11.828291 26.318979 0 0 -25.43543,-23.70199 z"
       id="path5274-0-2-9-9"
       inkscape:connector-curvature="0" />
  </g>
</svg>
