<?xml version="1.0" encoding="UTF-8" standalone="no"?>
<!-- Created with Inkscape (http://www.inkscape.org/) -->

<svg
   xmlns:dc="http://purl.org/dc/elements/1.1/"
   xmlns:cc="http://creativecommons.org/ns#"
   xmlns:rdf="http://www.w3.org/1999/02/22-rdf-syntax-ns#"
   xmlns:svg="http://www.w3.org/2000/svg"
   xmlns="http://www.w3.org/2000/svg"
   xmlns:sodipodi="http://sodipodi.sourceforge.net/DTD/sodipodi-0.dtd"
   xmlns:inkscape="http://www.inkscape.org/namespaces/inkscape"
   width="63mm"
   height="53mm"
   viewBox="0 0 63 53"
   version="1.1"
   id="svg5452"
   inkscape:version="0.92.1 r15371"
   sodipodi:docname="mylogo.svg">
  <defs
     id="defs5446" />
  <sodipodi:namedview
     id="base"
     pagecolor="#ffffff"
     bordercolor="#666666"
     borderopacity="1.0"
     inkscape:pageopacity="0.0"
     inkscape:pageshadow="2"
     inkscape:zoom="1.979899"
     inkscape:cx="3.6292287"
     inkscape:cy="179.51775"
     inkscape:document-units="mm"
     inkscape:current-layer="layer1"
     showgrid="false"
     inkscape:window-width="1920"
     inkscape:window-height="1027"
     inkscape:window-x="1912"
     inkscape:window-y="-8"
     inkscape:window-maximized="1"
     inkscape:measure-start="62.1802,1110.03"
     inkscape:measure-end="62.1802,909.137" />
  <metadata
     id="metadata5449">
    <rdf:RDF>
      <cc:Work
         rdf:about="">
        <dc:format>image/svg+xml</dc:format>
        <dc:type
           rdf:resource="http://purl.org/dc/dcmitype/StillImage" />
        <dc:title></dc:title>
      </cc:Work>
    </rdf:RDF>
  </metadata>
  <g
     inkscape:label="Layer 1"
     inkscape:groupmode="layer"
     id="layer1"
     transform="translate(0,-244)">
    <g
       id="g6695">
      <circle
         transform="rotate(-45)"
         r="21.139891"
         style="fill:none;fill-opacity:1;stroke:#484849;stroke-width:0.84775949;stroke-miterlimit:4;stroke-dasharray:none;stroke-opacity:1"
         cy="223.45779"
         cx="-165.78877"
         id="path3702-3" />
      <path
         sodipodi:nodetypes="sssssssss"
         inkscape:connector-curvature="0"
         id="path4797-0"
         d="m 26.246523,290.60676 c 2.523153,2.52315 6.572608,3.03351 9.766991,-0.16088 2.82668,-2.82668 3.424189,-6.13597 5.032873,-14.73092 1.616838,-8.63853 1.953399,-11.74336 5.262683,-15.05265 3.309289,-3.30929 7.491854,-2.25215 9.698042,-0.046 2.206193,2.20619 3.424194,6.36578 -0.114901,9.90487 -3.745927,3.74593 -10.51471,4.07092 -15.420356,5.26269 -5.305719,1.28895 -10.502387,1.218 -14.064465,4.78007 -3.975742,3.97574 -2.446952,7.75669 -0.160867,10.04277 z"
         style="fill:none;fill-opacity:1;stroke:#484849;stroke-width:0.84775949;stroke-linecap:butt;stroke-linejoin:miter;stroke-miterlimit:4;stroke-dasharray:none;stroke-opacity:1" />
      <path
         inkscape:connector-curvature="0"
         id="path5079-9"
         d="m 23.961515,284.85249 7.760377,7.76038"
         style="fill:none;stroke:#484849;stroke-width:0.84775949;stroke-linecap:butt;stroke-linejoin:miter;stroke-miterlimit:4;stroke-dasharray:none;stroke-opacity:1" />
      <path
         inkscape:connector-curvature="0"
         id="path5079-7-8"
         d="m 26.668343,280.0498 9.856238,9.85624"
         style="fill:none;stroke:#484849;stroke-width:0.84775949;stroke-linecap:butt;stroke-linejoin:miter;stroke-miterlimit:4;stroke-dasharray:none;stroke-opacity:1" />
      <path
         inkscape:connector-curvature="0"
         id="path5079-7-5-1-6"
         d="m 37.89256,276.25499 2.604071,2.60406"
         style="fill:none;stroke:#484849;stroke-width:0.77506202;stroke-linecap:butt;stroke-linejoin:miter;stroke-miterlimit:4;stroke-dasharray:none;stroke-opacity:1" />
      <path
         inkscape:connector-curvature="0"
         id="path5079-7-5-0-1"
         d="m 31.713271,277.58521 7.301277,7.30128"
         style="fill:none;stroke:#484849;stroke-width:0.8253184;stroke-linecap:butt;stroke-linejoin:miter;stroke-miterlimit:4;stroke-dasharray:none;stroke-opacity:1" />
      <path
         inkscape:connector-curvature="0"
         id="path5079-6-7"
         d="m 50.216508,258.54086 7.760374,7.76037"
         style="fill:none;stroke:#484849;stroke-width:0.84775949;stroke-linecap:butt;stroke-linejoin:miter;stroke-miterlimit:4;stroke-dasharray:none;stroke-opacity:1" />
      <path
         inkscape:connector-curvature="0"
         id="path5079-7-7-8"
         d="m 45.413811,261.24769 9.856242,9.85624"
         style="fill:none;stroke:#484849;stroke-width:0.84775949;stroke-linecap:butt;stroke-linejoin:miter;stroke-miterlimit:4;stroke-dasharray:none;stroke-opacity:1" />
      <path
         inkscape:connector-curvature="0"
         id="path5079-7-5-1-2-2"
         d="m 41.623647,272.47656 2.604068,2.60406"
         style="fill:none;stroke:#484849;stroke-width:0.77506202;stroke-linecap:butt;stroke-linejoin:miter;stroke-miterlimit:4;stroke-dasharray:none;stroke-opacity:1" />
      <path
         inkscape:connector-curvature="0"
         id="path5079-7-5-0-3-1"
         d="m 42.950705,266.29409 7.301278,7.30128"
         style="fill:none;stroke:#484849;stroke-width:0.8253184;stroke-linecap:butt;stroke-linejoin:miter;stroke-miterlimit:4;stroke-dasharray:none;stroke-opacity:1" />
      <path
         sodipodi:nodetypes="cc"
         inkscape:connector-curvature="0"
         id="path5234-1"
         d="m 25.595787,274.57627 c -0.01954,-2.53587 2.743617,-5.23283 5.21061,-5.21061"
         style="fill:none;stroke:#484849;stroke-width:0.84775949;stroke-linecap:butt;stroke-linejoin:miter;stroke-miterlimit:4;stroke-dasharray:none;stroke-opacity:1" />
      <path
         sodipodi:nodetypes="cc"
         inkscape:connector-curvature="0"
         id="path5234-5-1"
         d="m 40.017477,260.15458 c -2.535873,-0.0195 -5.232829,2.74362 -5.210609,5.21061"
         style="fill:none;stroke:#484849;stroke-width:0.84775949;stroke-linecap:butt;stroke-linejoin:miter;stroke-miterlimit:4;stroke-dasharray:none;stroke-opacity:1" />
      <path
         id="path5274-0-2-3"
         d="m 12.909283,244.66152 a 16.493008,5.7808436 67.271328 0 0 -1.165488,4.66423 c 1.924864,1.92028 3.108612,3.45883 3.108612,3.45883 0,0 -1.199449,-0.40878 -2.907133,-0.9027 a 16.493008,5.7808436 67.271328 0 0 2.760292,9.67622 16.493008,5.7808436 67.271328 0 0 5.091741,8.93928 16.493008,5.7808436 67.271328 0 0 -1.796067,-16.89654 16.493008,5.7808436 67.271328 0 0 -5.091957,-8.93932 z"
         style="fill:none;fill-opacity:1;stroke:#484849;stroke-width:0.84775949;stroke-miterlimit:4;stroke-dasharray:none;stroke-opacity:1"
         inkscape:connector-curvature="0" />
      <path
         inkscape:connector-curvature="0"
         id="path5274-0-2-9-9"
         d="m 9.0422487,261.75382 a 14.304521,5.013773 26.318979 0 0 -8.4170019,-2.96106 14.304521,5.013773 26.318979 0 0 10.7815642,10.04679 14.304521,5.013773 26.318979 0 0 8.417001,2.96106 14.304521,5.013773 26.318979 0 0 -10.7815633,-10.04679 z"
         style="fill:none;fill-opacity:1;stroke:#484849;stroke-width:0.84775949;stroke-miterlimit:4;stroke-dasharray:none;stroke-opacity:1" />
    </g>
  </g>
</svg>
